 http://makeagif.com/media/9-20-2011/9qDvdz.gif[/IMG]

[QUOTE]Format                                          : Matroska
Format version                                  : Version 2
File size                               : 676 MiB
Duration                                        : 1h 19mn
Overall bit rate                                : 1 186 Kbps
Encoded date                                    : UTC 2012-07-28 17:48:48
Writing application                     : mkvmerge v5.4.0 ('Piper') built on Mar 10 2012 13:34:39
Writing library                         : libebml v1.2.3 + libmatroska v1.3.0

Video
ID                                              : 1
Format                                          : MPEG-4 Visual
Format profile                                  : Advanced Simple@L5
Format settings, BVOP                   : Yes
Format settings, QPel                   : No
Format settings, GMC                            : No warppoints
Format settings, Matrix                 : Default (H.263)
Codec ID                                        : XVID
Codec ID/Hint                           : XviD
Duration                                        : 1h 19mn
Bit rate                                        : 1 066 Kbps
Width                                   : 720 pixels
Height                                          : 314 pixels
Display aspect ratio                            : 2.25:1
Frame rate                                      : 25.000 fps
Color space                             : YUV
Chroma subsampling                              : 4:2:0
Bit depth                               : 8 bits
Scan type                               : Progressive
Compression mode                                : Lossy
Bits/(Pixel*Frame)                              : 0.189
Stream size                             : 607 MiB (90%)
Title                                   : Ice Age 4 Continental Drift (2012) SCAMRip Hindi (Audiocleaned) Sohi
Writing library                         : XviD 63
Default                                 : Yes
Forced                                          : No

Audio
ID                                              : 2
Format                                          : MPEG Audio
Format version                                  : Version 1
Format profile                                  : Layer 3
Muxing mode                             : Header stripping
Codec ID                                        : A_MPEG/L3
Codec ID/Hint                           : MP3
Duration                                        : 1h 19mn
Bit rate mode                           : Constant
Bit rate                                        : 96.0 Kbps
Channel(s)                                      : 2 channels
Sampling rate                           : 44.1 KHz
Compression mode                                : Lossy
Stream size                             : 54.7 MiB (8%)
Language                                        : Hindi
Default                                 : Yes
Forced                                          : No[/QUOTE]
 
http://desisnap.com/image.php?id=B6B2_501428CE&jpg 
http://desisnap.com/image.php?id=3349_501428CE&jpg 
http://desisnap.com/image.php?id=14AF_501428CE&jpg 
http://desisnap.com/image.php?id=AB7D_501428CE&jpg 
http://desisnap.com/image.php?id=D20D_501428CE&jpg 
http://desisnap.com/image.php?id=B203_501428CE&jpg 
http://desisnap.com/image.php?id=56E5_501428CE&jpg 
http://desisnap.com/image.php?id=74A2_501428CE&jpg